<svg width="134" height="47" viewBox="0 0 134 47" fill="none" xmlns="http://www.w3.org/2000/svg">
<g clip-path="url(#clip0_1857_13992)">
<path d="M131.634 9C132.756 9 133.513 10.1451 133.074 11.1769L118.237 46.0481C117.991 46.6253 117.424 47 116.797 47H113.206C112.076 47 111.319 45.8394 111.774 44.8054L116.195 34.76C116.367 34.3686 116.372 33.9236 116.207 33.5288L106.901 11.1655C106.472 10.1351 107.229 9 108.345 9H112.316C112.968 9 113.552 9.40512 113.781 10.0164L119.85 26.244C119.952 26.5143 120.334 26.5152 120.436 26.2453L126.594 10.0097C126.824 9.40191 127.406 9 128.056 9H131.634Z" fill="#282A31"/>
<path d="M77 21.5421C77 18.9252 77.5147 16.6044 78.5442 14.5794C79.6048 12.5545 81.0399 10.9969 82.8492 9.90654C84.6586 8.8162 86.6707 8.27103 88.8856 8.27103C90.5702 8.27103 92.1768 8.64486 93.7054 9.39252C94.9165 9.9602 95.9317 10.6843 96.7511 11.5649C96.9564 11.7854 97.3553 11.6469 97.3553 11.3456V1.56443C97.3553 0.700417 98.0557 0 98.9197 0H102.436C103.3 0 104 0.700419 104 1.56443V33.015C104 33.879 103.3 34.5794 102.436 34.5794H98.9197C98.0557 34.5794 97.3553 33.879 97.3553 33.015V31.824C97.3553 31.5109 96.9218 31.376 96.7212 31.6165C95.9842 32.4997 95.0569 33.2381 93.9393 33.8318C92.4731 34.6106 90.773 35 88.8388 35C86.6551 35 84.6586 34.4393 82.8492 33.3178C81.0399 32.1963 79.6048 30.6231 78.5442 28.5981C77.5147 26.5421 77 24.19 77 21.5421ZM97.4021 21.6355C97.4021 20.0467 97.0901 18.6916 96.4662 17.5701C95.8423 16.4174 95 15.5452 93.9393 14.9533C92.8787 14.3302 91.74 14.0187 90.5234 14.0187C89.3068 14.0187 88.1837 14.3146 87.1542 14.9065C86.1248 15.4984 85.2825 16.3707 84.6274 17.5234C84.0035 18.6449 83.6915 19.9844 83.6915 21.5421C83.6915 23.0997 84.0035 24.4704 84.6274 25.6542C85.2825 26.8069 86.1248 27.6947 87.1542 28.3178C88.2149 28.9408 89.3379 29.2523 90.5234 29.2523C91.74 29.2523 92.8787 28.9564 93.9393 28.3645C95 27.7414 95.8423 26.8692 96.4662 25.7477C97.0901 24.595 97.4021 23.2243 97.4021 21.6355Z" fill="#282A31"/>
<path d="M41.4356 0C42.2996 0 43 0.700419 43 1.56443V33.4356C43 34.2996 42.2996 35 41.4356 35H37.5644C36.7004 35 36 34.2996 36 33.4356V1.56443C36 0.70042 36.7004 0 37.5644 0H41.4356Z" fill="#282A31"/>
<path d="M0 18.5231C0 15.345 0.719453 12.5063 2.15836 10.007C3.62854 7.47686 5.61486 5.51753 8.1173 4.12903C10.651 2.70968 13.4819 2 16.61 2C20.2698 2 23.4761 2.92567 26.2287 4.777C28.3897 6.23037 30.0398 8.1211 31.1791 10.4492C31.6488 11.4091 30.8952 12.46 29.8266 12.46H25.4243C24.8257 12.46 24.2902 12.1113 23.9724 11.604C23.2697 10.4819 22.3639 9.61021 21.2551 8.98878C19.9101 8.21739 18.346 7.8317 16.5631 7.8317C14.6549 7.8317 12.9501 8.2791 11.4487 9.17391C9.9785 10.0379 8.82112 11.2721 7.97654 12.8766C7.16325 14.4811 6.7566 16.3633 6.7566 18.5231C6.7566 20.6522 7.16325 22.5344 7.97654 24.1697C8.82112 25.7742 9.9785 27.0238 11.4487 27.9187C12.9501 28.7826 14.6549 29.2146 16.5631 29.2146C18.346 29.2146 19.9101 28.8289 21.2551 28.0575C22.3643 27.411 23.2704 26.524 23.9732 25.3965C24.2899 24.8885 24.8257 24.54 25.4243 24.54H29.833C30.8998 24.54 31.6534 25.5876 31.189 26.548C30.0494 28.9046 28.396 30.8117 26.2287 32.2693C23.5073 34.0898 20.3011 35 16.61 35C13.4819 35 10.651 34.3058 8.1173 32.9173C5.61486 31.4979 3.62854 29.5386 2.15836 27.0393C0.719453 24.54 0 21.7013 0 18.5231Z" fill="#282A31"/>
<path fill-rule="evenodd" clip-rule="evenodd" d="M60 32.2916C58.5341 33.9525 56.3894 35 54 35C49.5817 35 46 31.4183 46 27C46 24.6106 47.0475 22.4659 48.7084 21C47.0475 19.5341 46 17.3894 46 15C46 10.5817 49.5817 7 54 7C56.3894 7 58.5341 8.04751 60 9.70835C61.4659 8.04751 63.6106 7 66 7C70.4183 7 74 10.5817 74 15C74 17.3894 72.9525 19.5341 71.2916 21C72.9525 22.4659 74 24.6106 74 27C74 31.4183 70.4183 35 66 35C63.6106 35 61.4659 33.9525 60 32.2916ZM60.1213 18.8787C59.572 19.7277 58.849 20.4507 58 21C58.849 21.5493 59.572 22.2723 60.1213 23.1213C60.6707 22.2723 61.3936 21.5493 62.2426 21C61.3936 20.4507 60.6707 19.7277 60.1213 18.8787Z" fill="#282A31"/>
</g>
<defs>
<clipPath id="clip0_1857_13992">
<rect width="134" height="47" fill="white"/>
</clipPath>
</defs>
</svg>
