<svg width="28" height="28" viewBox="0 0 28 28" fill="none" xmlns="http://www.w3.org/2000/svg">
<path fill-rule="evenodd" clip-rule="evenodd" d="M10.3353 17.8667C10.5261 17.8667 10.717 17.8908 10.9036 17.9408C11.467 18.0925 11.9561 18.4692 12.2461 18.975C12.4345 19.2925 12.5386 19.6633 12.542 20.0417C12.542 20.5833 12.977 21.0175 13.512 21.0175H14.5561C15.0886 21.0175 15.5236 20.5858 15.5261 20.0533C15.5228 19.465 15.7528 18.9058 16.1736 18.485C16.5886 18.07 17.1686 17.8208 17.7486 17.8375C18.1286 17.8467 18.4945 17.9492 18.817 18.1325C19.2811 18.3983 19.8736 18.24 20.142 17.7817L20.6953 16.8592C20.8186 16.6467 20.8545 16.38 20.7886 16.1342C20.7236 15.8883 20.5603 15.675 20.3403 15.5492C19.8253 15.2525 19.4578 14.7742 19.3053 14.2008C19.1545 13.6383 19.237 13.0242 19.5311 12.5183C19.7228 12.185 20.0036 11.9042 20.3403 11.7108C20.792 11.4467 20.9503 10.8558 20.6878 10.3958C20.677 10.3775 20.667 10.3583 20.6586 10.3383L20.1703 9.49167C19.9045 9.02917 19.3128 8.87 18.8486 9.13417C18.347 9.43084 17.7503 9.51584 17.177 9.365C16.6045 9.21667 16.1245 8.85417 15.8253 8.3425C15.6336 8.0225 15.5295 7.65 15.5261 7.27084C15.5336 6.98584 15.4336 6.73 15.252 6.5425C15.0711 6.35584 14.817 6.25 14.5561 6.25H13.512C13.2536 6.25 13.012 6.35084 12.8295 6.5325C12.6478 6.715 12.5486 6.9575 12.5503 7.21584C12.5328 8.43417 11.537 9.415 10.3311 9.415C9.94447 9.41084 9.57197 9.30667 9.24863 9.11334C8.79447 8.855 8.20113 9.01417 7.9353 9.47667L7.37113 10.4042C7.1128 10.8525 7.27113 11.445 7.73113 11.7125C8.41363 12.1075 8.83947 12.8442 8.83947 13.6342C8.83947 14.4242 8.41363 15.16 7.72947 15.5558C7.27197 15.8208 7.11363 16.41 7.37863 16.8683L7.90447 17.775C8.03447 18.0092 8.24697 18.1783 8.4928 18.2475C8.7378 18.3158 9.0078 18.2867 9.2328 18.1617C9.56363 17.9675 9.94863 17.8667 10.3353 17.8667ZM14.5561 22.2675H13.5119C12.2878 22.2675 11.2919 21.2725 11.2919 20.0483C11.2903 19.8975 11.2469 19.7408 11.1661 19.605C11.0353 19.3767 10.8236 19.2133 10.5794 19.1483C10.3369 19.0833 10.0711 19.1192 9.85277 19.2458C9.32944 19.5375 8.7136 19.6083 8.15027 19.45C7.58777 19.2908 7.10194 18.9042 6.81694 18.3917L6.2961 17.4942C5.68694 16.4375 6.04944 15.0833 7.10444 14.4733C7.4036 14.3008 7.58944 13.9792 7.58944 13.6342C7.58944 13.2892 7.4036 12.9667 7.10444 12.7942C6.0486 12.1808 5.68694 10.8233 6.29527 9.76667L6.86027 8.83917C7.4611 7.79417 8.81944 7.42584 9.8786 8.03417C10.0228 8.12 10.1794 8.16334 10.3386 8.165C10.8578 8.165 11.2919 7.73667 11.3003 7.21C11.2969 6.62917 11.5261 6.07167 11.9436 5.65084C12.3628 5.23084 12.9194 5 13.5119 5H14.5561C15.1528 5 15.7328 5.245 16.1486 5.67084C16.5636 6.09917 16.7928 6.68667 16.7753 7.2825C16.7769 7.41667 16.8211 7.57167 16.9011 7.7075C17.0336 7.9325 17.2428 8.09084 17.4911 8.15584C17.7394 8.2175 17.9994 8.18417 18.2203 8.05334C19.2869 7.44417 20.6444 7.80917 21.2536 8.8675L21.7728 9.76667C21.7861 9.79084 21.7978 9.81417 21.8078 9.83834C22.3594 10.8808 21.9911 12.1933 20.9661 12.7925C20.8169 12.8783 20.6961 12.9983 20.6128 13.1433C20.4836 13.3675 20.4478 13.6342 20.5128 13.8792C20.5794 14.1292 20.7386 14.3367 20.9628 14.465C21.4686 14.7558 21.8461 15.2458 21.9969 15.8117C22.1478 16.3767 22.0653 16.99 21.7711 17.4958L21.2178 18.4175C20.6086 19.4642 19.2511 19.8267 18.1953 19.2167C18.0544 19.1358 17.8919 19.0917 17.7303 19.0875H17.7253C17.4844 19.0875 17.2369 19.19 17.0569 19.3692C16.8744 19.5517 16.7744 19.795 16.7761 20.0533C16.7703 21.2775 15.7744 22.2675 14.5561 22.2675Z" fill="#282A31"/>
<path fill-rule="evenodd" clip-rule="evenodd" d="M14.0376 12.0623C13.1709 12.0623 12.4659 12.7681 12.4659 13.6348C12.4659 14.5015 13.1709 15.2056 14.0376 15.2056C14.9043 15.2056 15.6093 14.5015 15.6093 13.6348C15.6093 12.7681 14.9043 12.0623 14.0376 12.0623ZM14.0376 16.4558C12.4818 16.4558 11.2159 15.1908 11.2159 13.635C11.2159 12.0792 12.4818 10.8125 14.0376 10.8125C15.5934 10.8125 16.8593 12.0792 16.8593 13.635C16.8593 15.1908 15.5934 16.4558 14.0376 16.4558Z" fill="#282A31"/>
</svg>
