<svg width="26" height="25" viewBox="0 0 26 25" fill="none" xmlns="http://www.w3.org/2000/svg">
<g clip-path="url(#clip0_1785_40041)">
<path fill-rule="evenodd" clip-rule="evenodd" d="M7.27998 25C9.60059 25 11.6676 23.956 13.0007 22.3297C14.3338 23.956 16.4008 25 18.7214 25C22.742 25 26.0014 21.866 26.0014 18C26.0014 15.769 24.916 13.7818 23.2252 12.5C24.916 11.2182 26.0014 9.23096 26.0014 7C26.0014 3.13401 22.742 0 18.7214 0C16.4008 0 14.3338 1.04404 13.0007 2.67028C11.6676 1.04404 9.60059 0 7.27998 0C3.25936 0 0 3.13401 0 7C0 9.23096 1.08541 11.2182 2.77617 12.5C1.08541 13.7818 0 15.769 0 18C0 21.866 3.25936 25 7.27998 25Z" fill="#E3E6ED"/>
<path fill-rule="evenodd" clip-rule="evenodd" d="M13.7109 7C13.7109 6.58579 13.3752 6.25 12.9609 6.25C12.5467 6.25 12.2109 6.58579 12.2109 7V11.3164H7.96484C7.55063 11.3164 7.21484 11.6522 7.21484 12.0664C7.21484 12.4806 7.55063 12.8164 7.96484 12.8164H12.2109V17.0664C12.2109 17.4806 12.5467 17.8164 12.9609 17.8164C13.3752 17.8164 13.7109 17.4806 13.7109 17.0664V12.8164H18.0313C18.4455 12.8164 18.7813 12.4806 18.7813 12.0664C18.7813 11.6522 18.4455 11.3164 18.0313 11.3164H13.7109V7Z" fill="#A7A9B2"/>
</g>
<defs>
<clipPath id="clip0_1785_40041">
<rect width="26" height="25" fill="white"/>
</clipPath>
</defs>
</svg>
