<svg width="375" height="150" viewBox="0 0 375 150" fill="none" xmlns="http://www.w3.org/2000/svg">
<path fill-rule="evenodd" clip-rule="evenodd" d="M133.441 35.4218C134.898 32.7418 138.346 31.8014 141.142 33.3212C142.756 34.1981 143.8 35.7022 144.115 37.3326C145.655 36.7088 147.487 36.7663 149.101 37.6437C151.898 39.1635 152.985 42.5681 151.528 45.248C150.687 46.7958 149.182 47.7634 147.521 48.0118C148.215 49.5398 148.222 51.3283 147.381 52.8752C145.924 55.5552 142.477 56.4956 139.68 54.9758C138.065 54.0984 137.021 52.5928 136.706 50.9612C135.167 51.5844 133.336 51.5266 131.722 50.6495C128.925 49.1297 127.839 45.7251 129.295 43.0452C130.136 41.4982 131.64 40.5308 133.3 40.2817C132.607 38.7545 132.601 36.9676 133.441 35.4218Z" fill="#47D27D"/>
<path fill-rule="evenodd" clip-rule="evenodd" d="M196.46 20.3893C196.935 18.636 198.803 17.6168 200.633 18.1127C201.688 18.3987 202.5 19.1261 202.907 20.0269C203.713 19.4541 204.782 19.2357 205.838 19.5219C207.668 20.0179 208.766 21.8412 208.29 23.5945C208.016 24.6078 207.276 25.376 206.347 25.7481C206.96 26.5384 207.211 27.5749 206.936 28.588C206.461 30.3412 204.593 31.3605 202.763 30.8645C201.707 30.5782 200.894 29.8494 200.487 28.9471C199.681 29.5192 198.613 29.7372 197.558 29.4511C195.728 28.9552 194.63 27.1318 195.105 25.3785C195.38 24.3661 196.119 23.5984 197.047 23.2259C196.435 22.4361 196.185 21.401 196.46 20.3893Z" fill="#E5F9ED"/>
<path fill-rule="evenodd" clip-rule="evenodd" d="M210.715 47.22C211.682 41.7171 217.121 38.0744 222.864 39.0837C226.177 39.666 228.868 41.6699 230.365 44.318C232.676 42.3387 235.889 41.372 239.203 41.9544C244.945 42.9637 248.817 48.2428 247.85 53.7457C247.292 56.9211 245.244 59.4771 242.509 60.8773C244.603 63.1262 245.655 66.2269 245.097 69.4021C244.13 74.905 238.691 78.5477 232.948 77.5385C229.636 76.9563 226.946 74.9533 225.448 72.3061C223.137 74.2839 219.926 75.2496 216.613 74.6674C210.871 73.6581 206.999 68.379 207.967 62.8762C208.524 59.7018 210.571 57.1464 213.305 55.746C211.21 53.4969 210.157 50.3957 210.715 47.22Z" fill="#A9F1B0"/>
<circle cx="170.355" cy="77.0248" r="18.0248" fill="#282A31"/>
<circle cx="166.408" cy="111.231" r="21.9718" fill="#282A31"/>
<circle cx="199.036" cy="77.0248" r="18.0248" fill="#282A31"/>
<circle cx="202.983" cy="111.231" r="21.9718" fill="#282A31"/>
<ellipse cx="184.563" cy="115.441" rx="39.0757" ry="22.235" fill="#282A31"/>
<path d="M185.464 110.661C185.018 111.271 184.108 111.271 183.662 110.661L182.105 108.537C181.565 107.799 182.092 106.76 183.007 106.76L186.119 106.76C187.034 106.76 187.561 107.799 187.021 108.537L185.464 110.661Z" fill="#FAE100"/>
<circle cx="194.432" cy="102.68" r="2.63136" fill="white"/>
<circle cx="174.961" cy="102.68" r="2.63136" fill="white"/>
<circle cx="184.697" cy="93.4715" r="6.5784" fill="#282A31"/>
<mask id="mask0_2398_42679" style="mask-type:alpha" maskUnits="userSpaceOnUse" x="163" y="115" width="43" height="29">
<rect x="163.563" y="115.441" width="42" height="28" rx="3" fill="#E8F3FF"/>
</mask>
<g mask="url(#mask0_2398_42679)">
<rect x="163.563" y="115.441" width="42" height="30" rx="1.99525" fill="#BECCFF"/>
<path d="M185.134 130.057C184.433 130.542 183.503 130.53 182.815 130.027L162.132 114.906L207.025 114.906L185.134 130.057Z" fill="#E8F3FF"/>
</g>
<ellipse cx="154.585" cy="133.635" rx="14" ry="11.5" fill="url(#paint0_linear_2398_42679)"/>
<ellipse cx="14" cy="11.5" rx="14" ry="11.5" transform="matrix(-1 0 0 1 228.513 122.135)" fill="url(#paint1_linear_2398_42679)"/>
<defs>
<linearGradient id="paint0_linear_2398_42679" x1="157.477" y1="131.21" x2="165.667" y2="114.897" gradientUnits="userSpaceOnUse">
<stop offset="0.184" stop-color="#32343E"/>
<stop offset="1" stop-color="#8A8D98"/>
</linearGradient>
<linearGradient id="paint1_linear_2398_42679" x1="16.8923" y1="9.07477" x2="25.0818" y2="-7.23813" gradientUnits="userSpaceOnUse">
<stop offset="0.184" stop-color="#32343E"/>
<stop offset="1" stop-color="#8A8D98"/>
</linearGradient>
</defs>
</svg>
