<svg width="199" height="199" viewBox="0 0 199 199" fill="none" xmlns="http://www.w3.org/2000/svg">
<path fill-rule="evenodd" clip-rule="evenodd" d="M55.9174 199C73.5355 199 89.2507 190.852 99.5 178.119C109.749 190.852 125.464 199 143.083 199C173.965 199 199 173.965 199 143.083C199 125.464 190.852 109.749 178.119 99.5C190.852 89.2507 199 73.5355 199 55.9174C199 25.0351 173.965 0 143.083 0C125.464 0 109.749 8.14801 99.5 20.8813C89.2507 8.14801 73.5355 0 55.9174 0C25.0351 0 0 25.0351 0 55.9174C0 73.5355 8.14801 89.2507 20.8813 99.5C8.14801 109.749 0 125.464 0 143.083C0 173.965 25.0351 199 55.9174 199Z" fill="#FFF5D0"/>
<circle cx="72.2971" cy="71.6558" r="21.656" fill="#282A31"/>
<circle cx="67.5549" cy="112.754" r="26.3982" fill="#282A31"/>
<circle cx="106.757" cy="71.6558" r="21.656" fill="#282A31"/>
<circle cx="111.499" cy="112.754" r="26.3982" fill="#282A31"/>
<ellipse cx="89.3686" cy="117.813" rx="46.9477" ry="26.7143" fill="#282A31"/>
<path d="M90.4512 112.067C89.9149 112.799 88.8222 112.799 88.2859 112.067L86.4159 109.515C85.7662 108.629 86.3994 107.38 87.4985 107.38L91.2386 107.38C92.3377 107.38 92.9709 108.629 92.3212 109.515L90.4512 112.067Z" fill="#FFD84D"/>
<circle cx="101.224" cy="102.479" r="3.16146" fill="white"/>
<circle cx="77.8294" cy="102.479" r="3.16146" fill="white"/>
<circle cx="89.5272" cy="91.4151" r="7.90365" fill="#282A31"/>
<path d="M141.141 115.524L140.669 116.579C133.187 133.316 122.081 148.183 108.155 160.106V160.106" stroke="#47D27D" stroke-width="1.91805"/>
<path d="M72.1254 139.809C72.1254 146.973 64.9762 152.985 55.8789 152.985C46.7815 152.985 39.6323 146.973 39.6323 139.809C39.6323 132.644 46.7815 126.632 55.8789 126.632C64.9762 126.632 72.1254 132.644 72.1254 139.809Z" fill="#282A31" stroke="#FFF5D0" stroke-width="1.26458"/>
<path d="M141.659 139.678C141.659 146.842 134.51 152.854 125.413 152.854C116.315 152.854 109.166 146.842 109.166 139.678C109.166 132.513 116.315 126.501 125.413 126.501C134.51 126.501 141.659 132.513 141.659 139.678Z" fill="#282A31" stroke="#FFF5D0" stroke-width="1.26458"/>
<mask id="path-14-inside-1_1519_34794" fill="white">
<path fill-rule="evenodd" clip-rule="evenodd" d="M161.905 111.529C160.594 114.34 158.097 116.219 155.288 116.848C156.612 119.405 156.777 122.525 155.466 125.336C153.223 130.147 147.504 132.229 142.692 129.985C139.881 128.675 138.002 126.178 137.373 123.369C134.816 124.692 131.695 124.858 128.884 123.547C124.073 121.303 121.991 115.584 124.235 110.773C125.546 107.962 128.042 106.083 130.852 105.453C129.528 102.897 129.363 99.7763 130.673 96.9656C132.917 92.1541 138.636 90.0725 143.448 92.3161C146.259 93.6268 148.138 96.1238 148.767 98.933C151.324 97.6093 154.445 97.4438 157.256 98.7546C162.067 100.998 164.149 106.717 161.905 111.529Z"/>
</mask>
<path fill-rule="evenodd" clip-rule="evenodd" d="M161.905 111.529C160.594 114.34 158.097 116.219 155.288 116.848C156.612 119.405 156.777 122.525 155.466 125.336C153.223 130.147 147.504 132.229 142.692 129.985C139.881 128.675 138.002 126.178 137.373 123.369C134.816 124.692 131.695 124.858 128.884 123.547C124.073 121.303 121.991 115.584 124.235 110.773C125.546 107.962 128.042 106.083 130.852 105.453C129.528 102.897 129.363 99.7763 130.673 96.9656C132.917 92.1541 138.636 90.0725 143.448 92.3161C146.259 93.6268 148.138 96.1238 148.767 98.933C151.324 97.6093 154.445 97.4438 157.256 98.7546C162.067 100.998 164.149 106.717 161.905 111.529Z" fill="#47D27D"/>
<path d="M155.288 116.848L155.012 115.614L153.411 115.973L154.165 117.43L155.288 116.848ZM137.373 123.369L138.607 123.092L138.248 121.491L136.791 122.246L137.373 123.369ZM130.852 105.453L131.128 106.687L132.729 106.329L131.975 104.872L130.852 105.453ZM148.767 98.933L147.533 99.2095L147.892 100.81L149.349 100.056L148.767 98.933ZM155.565 118.082C158.74 117.371 161.568 115.244 163.051 112.063L160.759 110.994C159.621 113.435 157.455 115.067 155.012 115.614L155.565 118.082ZM156.613 125.87C158.096 122.689 157.907 119.157 156.411 116.267L154.165 117.43C155.316 119.653 155.458 122.361 154.32 124.802L156.613 125.87ZM142.158 131.132C147.602 133.67 154.074 131.315 156.613 125.87L154.32 124.802C152.372 128.98 147.405 130.788 143.227 128.839L142.158 131.132ZM136.139 123.645C136.85 126.82 138.976 129.648 142.158 131.132L143.227 128.839C140.786 127.701 139.154 125.535 138.607 123.092L136.139 123.645ZM128.35 124.693C131.531 126.177 135.064 125.988 137.954 124.492L136.791 122.246C134.568 123.397 131.859 123.539 129.419 122.401L128.35 124.693ZM123.089 110.238C120.55 115.683 122.906 122.154 128.35 124.693L129.419 122.401C125.24 120.452 123.433 115.486 125.381 111.307L123.089 110.238ZM130.575 104.219C127.4 104.931 124.572 107.057 123.089 110.238L125.381 111.307C126.519 108.867 128.685 107.235 131.128 106.687L130.575 104.219ZM129.527 96.4311C128.044 99.6123 128.233 103.145 129.728 106.035L131.975 104.872C130.824 102.649 130.682 99.9403 131.82 97.5L129.527 96.4311ZM143.982 91.17C138.538 88.6312 132.066 90.9867 129.527 96.4311L131.82 97.5C133.768 93.3215 138.735 91.5137 142.913 93.4622L143.982 91.17ZM150.001 98.6566C149.29 95.4812 147.163 92.6535 143.982 91.17L142.913 93.4622C145.354 94.6002 146.986 96.7665 147.533 99.2095L150.001 98.6566ZM157.79 97.6085C154.609 96.1249 151.076 96.3138 148.186 97.81L149.349 100.056C151.572 98.9049 154.281 98.7626 156.721 99.9007L157.79 97.6085ZM163.051 112.063C165.59 106.619 163.234 100.147 157.79 97.6085L156.721 99.9007C160.9 101.849 162.707 106.816 160.759 110.994L163.051 112.063Z" fill="#FFF5D0" mask="url(#path-14-inside-1_1519_34794)"/>
<path d="M141.006 109.989C142.169 109.828 143.284 109.422 144.278 108.798C144.439 109.961 144.845 111.076 145.469 112.07C144.306 112.232 143.191 112.637 142.197 113.261C142.036 112.099 141.63 110.983 141.006 109.989Z" fill="#FFF5D0"/>
</svg>
