<svg width="221" height="221" viewBox="0 0 221 221" fill="none" xmlns="http://www.w3.org/2000/svg">
<circle cx="110.456" cy="110.748" r="110.09" fill="#FFF5D0" fill-opacity="0.3"/>
<circle cx="110.455" cy="110.746" r="77.5127" fill="#FFF5D0"/>
<circle cx="89.5567" cy="88.6725" r="19.417" fill="#282A31"/>
<circle cx="85.3047" cy="125.522" r="23.6689" fill="#282A31"/>
<circle cx="120.452" cy="88.6725" r="19.417" fill="#282A31"/>
<circle cx="124.704" cy="125.522" r="23.6689" fill="#282A31"/>
<ellipse cx="104.863" cy="130.055" rx="42.0939" ry="23.9524" fill="#282A31"/>
<path d="M105.75 125.019C105.31 125.619 104.413 125.619 103.973 125.019L102.095 122.456C101.562 121.728 102.081 120.704 102.983 120.704L106.74 120.704C107.642 120.704 108.161 121.728 107.628 122.456L105.75 125.019Z" fill="#FAE100"/>
<circle cx="115.494" cy="116.308" r="2.8346" fill="white"/>
<circle cx="94.5167" cy="116.308" r="2.8346" fill="white"/>
<circle cx="105.005" cy="106.388" r="7.08651" fill="#282A31"/>
<path d="M132.404 160.821C132.055 161.171 132.055 161.738 132.404 162.088C132.754 162.438 133.321 162.438 133.671 162.088L132.404 160.821ZM151.98 127.506L150.64 131.468L152.337 132.042L153.677 128.08L151.98 127.506ZM150.64 131.468C146.898 142.523 140.658 152.568 132.404 160.821L133.671 162.088C142.12 153.64 148.507 143.358 152.337 132.042L150.64 131.468Z" fill="#47D27D"/>
<path fill-rule="evenodd" clip-rule="evenodd" d="M141.413 135.982C144.282 137.32 147.468 137.151 150.078 135.799C150.72 138.666 152.638 141.215 155.507 142.552C160.418 144.842 166.255 142.718 168.545 137.807C169.882 134.939 169.714 131.755 168.364 129.146C171.23 128.503 173.778 126.586 175.115 123.718C177.405 118.807 175.28 112.97 170.37 110.68C167.501 109.342 164.315 109.511 161.706 110.862C161.065 107.993 159.146 105.443 156.276 104.104C151.365 101.814 145.528 103.939 143.238 108.85C141.9 111.719 142.069 114.905 143.421 117.515C140.554 118.157 138.005 120.075 136.668 122.944C134.378 127.855 136.502 133.692 141.413 135.982Z" fill="#47D27D"/>
<path d="M153.78 122.142C154.967 121.977 156.105 121.563 157.119 120.926C157.284 122.113 157.698 123.251 158.335 124.265C157.148 124.43 156.01 124.844 154.996 125.481C154.831 124.294 154.417 123.156 153.78 122.142Z" fill="#FFF5D0"/>
</svg>
