<svg width="24" height="25" viewBox="0 0 24 25" fill="none" xmlns="http://www.w3.org/2000/svg">
<rect y="0.5" width="24" height="24" rx="12" fill="black"/>
<path d="M18.3233 16.2572C18.0863 16.8023 17.8057 17.3039 17.4807 17.7652C17.0377 18.394 16.6749 18.8292 16.3954 19.0709C15.962 19.4677 15.4977 19.6708 15.0005 19.6824C14.6436 19.6824 14.2131 19.5813 13.7121 19.3762C13.2093 19.172 12.7473 19.0709 12.3249 19.0709C11.8819 19.0709 11.4067 19.172 10.8985 19.3762C10.3895 19.5813 9.97947 19.6882 9.66596 19.6988C9.18917 19.719 8.71393 19.51 8.23956 19.0709C7.93679 18.808 7.55808 18.3574 7.10441 17.719C6.61766 17.0372 6.21748 16.2466 5.90397 15.3453C5.56822 14.3718 5.3999 13.4291 5.3999 12.5164C5.3999 11.471 5.62683 10.5693 6.08138 9.81367C6.43861 9.20673 6.91385 8.72796 7.50865 8.37649C8.10346 8.02502 8.74614 7.84591 9.43826 7.83445C9.81696 7.83445 10.3136 7.95106 10.9307 8.18024C11.5461 8.41019 11.9413 8.5268 12.1145 8.5268C12.2441 8.5268 12.683 8.39045 13.4272 8.11861C14.1309 7.86652 14.7248 7.76214 15.2114 7.80325C16.5298 7.90918 17.5204 8.42656 18.1791 9.35868C17 10.0699 16.4167 11.0661 16.4283 12.344C16.4389 13.3394 16.8017 14.1677 17.5146 14.8254C17.8377 15.1306 18.1985 15.3665 18.5999 15.5341C18.5128 15.7854 18.4209 16.0261 18.3233 16.2572ZM15.2994 4.41219C15.2994 5.19236 15.0131 5.92081 14.4424 6.59506C13.7536 7.39661 12.9206 7.85978 12.0172 7.78669C12.0057 7.69309 11.999 7.59459 11.999 7.49107C11.999 6.7421 12.3266 5.94055 12.9082 5.28518C13.1986 4.95336 13.5679 4.67745 14.0158 4.45735C14.4627 4.24053 14.8854 4.12063 15.283 4.1001C15.2946 4.2044 15.2994 4.3087 15.2994 4.41218V4.41219Z" fill="white"/>
</svg>
