<svg width="118" height="89" viewBox="0 0 118 89" fill="none" xmlns="http://www.w3.org/2000/svg">
<g clip-path="url(#clip0_2283_25962)">
<path d="M26.771 45.9009H90.56V84.4953C90.56 86.1521 89.2169 87.4953 87.56 87.4953H29.771C28.1141 87.4953 26.771 86.1521 26.771 84.4953V45.9009Z" fill="#A5D0FF"/>
<path d="M56.4735 31.1532C57.2933 30.7463 58.254 30.7358 59.0824 31.1247L90.5507 45.8979L59.3151 64.0112C58.3614 64.5643 57.1812 64.5497 56.2414 63.9732L26.7749 45.897L56.4735 31.1532Z" fill="#5277FC"/>
<ellipse cx="68.5781" cy="36.7689" rx="12.0522" ry="11.549" transform="rotate(-164.833 68.5781 36.7689)" fill="#47D27D"/>
<ellipse cx="73.3281" cy="19.2533" rx="12.0522" ry="11.549" transform="rotate(-164.833 73.3281 19.2533)" fill="#47D27D"/>
<ellipse cx="50.3007" cy="31.8119" rx="12.0522" ry="11.549" transform="rotate(-164.833 50.3007 31.8119)" fill="#47D27D"/>
<ellipse cx="55.0468" cy="14.3002" rx="12.0522" ry="11.549" transform="rotate(-164.833 55.0468 14.3002)" fill="#47D27D"/>
<ellipse cx="62.0379" cy="24.7402" rx="11.1914" ry="11.549" transform="rotate(-164.833 62.0379 24.7402)" fill="#47D27D"/>
<path d="M68.478 36.5806L65.1467 30.7716" stroke="#E5F9ED" stroke-width="1.61604" stroke-linecap="round"/>
<path d="M58.4976 21.4868L55.5766 15.4611" stroke="#E5F9ED" stroke-width="1.61604" stroke-linecap="round"/>
<path d="M50.7983 32.1938L56.6073 28.8625" stroke="#E5F9ED" stroke-width="1.61604" stroke-linecap="round"/>
<path d="M66.8101 23.4282L72.6015 20.0667" stroke="#E5F9ED" stroke-width="1.61604" stroke-linecap="round"/>
<path d="M56.0217 41.5533C56.2899 40.7367 57.1503 40.2729 57.9799 40.4978L58.1781 40.5515C58.992 40.7721 59.4994 41.5813 59.3435 42.41L57.0961 54.3585C56.9218 55.2849 55.9949 55.8662 55.0851 55.6195L53.3476 55.1486C52.454 54.9063 51.9462 53.9643 52.235 53.0846L56.0217 41.5533Z" fill="#47D27D"/>
<path d="M20.6095 2.95027C20.7666 2.60685 21.2331 2.55491 21.4619 2.85535L24.4164 6.73477C24.4662 6.80018 24.5314 6.8523 24.6061 6.8865L29.0404 8.91529C29.3838 9.07241 29.4358 9.53893 29.1353 9.76774L25.2559 12.7222C25.1905 12.772 25.1384 12.8372 25.1042 12.912L23.0754 17.3462C22.9183 17.6896 22.4517 17.7416 22.2229 17.4411L19.2685 13.5617C19.2187 13.4963 19.1535 13.4442 19.0787 13.41L14.6445 11.3812C14.301 11.2241 14.2491 10.7576 14.5495 10.5288L18.429 7.57429C18.4944 7.52448 18.5465 7.4593 18.5807 7.38454L20.6095 2.95027Z" fill="#FFE37E"/>
<path d="M103.096 28.2591C103.32 28.2288 103.496 28.4488 103.417 28.6611L102.042 32.3527C102.025 32.3989 102.02 32.4487 102.026 32.4976L102.554 36.4013C102.584 36.6258 102.364 36.8017 102.152 36.7226L98.4602 35.3478C98.414 35.3306 98.3642 35.3251 98.3153 35.3317L94.4116 35.8593C94.187 35.8896 94.0112 35.6696 94.0902 35.4573L95.465 31.7657C95.4822 31.7195 95.4878 31.6697 95.4812 31.6209L94.9536 27.7171C94.9232 27.4926 95.1432 27.3167 95.3556 27.3958L99.0471 28.7706C99.0933 28.7878 99.1431 28.7933 99.192 28.7867L103.096 28.2591Z" fill="#FFD84D"/>
<path d="M107.685 12.5306C107.813 12.4505 107.981 12.5358 107.991 12.6865L108.184 15.5042C108.186 15.537 108.196 15.5687 108.214 15.5966L109.712 17.9907C109.792 18.1188 109.707 18.286 109.556 18.2963L106.738 18.4891C106.705 18.4913 106.674 18.5016 106.646 18.5191L104.252 20.0172C104.124 20.0973 103.956 20.012 103.946 19.8613L103.753 17.0437C103.751 17.0109 103.741 16.9791 103.723 16.9512L102.225 14.5571C102.145 14.4291 102.23 14.2618 102.381 14.2515L105.199 14.0587C105.232 14.0565 105.263 14.0462 105.291 14.0288L107.685 12.5306Z" fill="#FFEDAC"/>
<rect x="67.8867" y="63.4033" width="48.8695" height="17.725" rx="8.8625" transform="rotate(-5.4128 67.8867 63.4033)" fill="#E8F3FF"/>
<path d="M81.6043 74.6298L80.933 67.3587L82.4395 67.2196L82.9957 73.2454L86.1291 72.9561L86.2441 74.2014L81.6043 74.6298ZM91.0154 66.4279L92.5319 66.2879L92.9677 71.0081C93.1151 72.6049 92.0073 73.7707 90.1995 73.9376C88.3918 74.1045 87.0993 73.1603 86.9519 71.5635L86.5162 66.8433L88.0226 66.7042L88.4472 71.3039C88.5242 72.1374 89.1733 72.6954 90.0772 72.6119C90.9911 72.5275 91.517 71.8611 91.44 71.0276L91.0154 66.4279ZM98.8207 68.2597C98.626 67.4674 97.9579 67.0328 97.1143 67.1107C95.9795 67.2155 95.317 68.1578 95.4579 69.6843C95.6025 71.251 96.4327 72.0151 97.5475 71.9122C98.381 71.8352 98.951 71.3167 99.0293 70.5194L100.557 70.3885C100.51 71.75 99.4986 73.0791 97.6507 73.2497C95.7023 73.4296 94.1401 72.1963 93.9213 69.8262C93.7025 67.456 95.0427 65.9548 96.9609 65.7778C98.6381 65.6229 99.9925 66.4702 100.347 68.1188L98.8207 68.2597ZM101.809 72.7646L101.137 65.4935L102.644 65.3544L102.941 68.5782L103.042 68.5689L105.385 65.1013L107.203 64.9335L104.792 68.4378L107.905 72.2018L106.097 72.3687L103.801 69.5522L103.123 70.5466L103.315 72.6255L101.809 72.7646Z" fill="#5277FC"/>
</g>
<defs>
<clipPath id="clip0_2283_25962">
<rect width="118" height="89" fill="white"/>
</clipPath>
</defs>
</svg>
