<svg width="232" height="179" viewBox="0 0 232 179" fill="none" xmlns="http://www.w3.org/2000/svg">
<rect x="165.273" y="12.8547" width="10" height="12" transform="rotate(-13.1283 165.273 12.8547)" fill="#9396A2"/>
<circle cx="180.862" cy="59.8816" r="42.5024" transform="rotate(-13.1283 180.862 59.8816)" fill="#4A4C54"/>
<circle cx="180.953" cy="59.8597" r="32.8792" transform="rotate(-13.1283 180.953 59.8597)" fill="white"/>
<path d="M212.973 52.3918C214.45 58.7247 214.015 65.3534 211.725 71.4397C209.435 77.5259 205.391 82.7963 200.106 86.5844C194.82 90.3725 188.53 92.5081 182.03 92.7213C175.531 92.9344 169.114 91.2155 163.592 87.7818C158.069 84.3482 153.689 79.3541 151.005 73.431C148.321 67.5079 147.453 60.9218 148.512 54.5057C149.571 48.0896 152.509 42.1316 156.954 37.3851C161.399 32.6387 167.152 29.3169 173.485 27.8399L180.953 59.8597L212.973 52.3918Z" fill="#E3E6ED"/>
<circle cx="180.619" cy="60.1056" r="4.5" transform="rotate(-13.1283 180.619 60.1056)" fill="#9396A2"/>
<rect x="155.434" y="5.90546" width="26" height="12" rx="3.20773" transform="rotate(-13.1283 155.434 5.90546)" fill="#4A4C54"/>
<rect x="10.6094" y="38.9211" width="145.114" height="127.839" rx="15.3011" transform="rotate(4.7612 10.6094 38.9211)" fill="#F2F3F6"/>
<path d="M9.33933 54.1694C10.0408 45.748 17.4363 39.4897 25.8577 40.1911L139.974 49.696C148.396 50.3974 154.654 57.7929 153.953 66.2143L152.259 86.5455L7.64594 74.5006L9.33933 54.1694Z" fill="#33A5FF"/>
<path d="M36.8552 104.599L36.4656 109.278L30.1142 108.749L28.5073 128.042L22.6682 127.555L24.2751 108.262L17.9238 107.733L18.3134 103.055L36.8552 104.599ZM49.106 129.998C46.8523 129.81 44.8243 129.114 43.0221 127.91C41.2426 126.707 39.8729 125.126 38.9129 123.166C37.9776 121.186 37.6076 119.023 37.8029 116.678C37.9981 114.334 38.7199 112.273 39.9681 110.498C41.239 108.724 42.8514 107.391 44.8054 106.499C46.782 105.61 48.8972 105.259 51.1509 105.446C53.4046 105.634 55.4212 106.329 57.2007 107.532C59.0029 108.736 60.3613 110.317 61.2757 112.272C62.2129 114.23 62.5839 116.381 62.3886 118.726C62.1933 121.071 61.4706 123.142 60.2206 124.941C58.9724 126.717 57.3713 128.05 55.4174 128.942C53.4635 129.834 51.3597 130.186 49.106 129.998ZM49.5497 124.671C51.4619 124.83 53.0402 124.32 54.2846 123.14C55.5518 121.962 56.2726 120.326 56.4471 118.231C56.6234 116.114 56.1832 114.381 55.1265 113.032C54.0944 111.663 52.6223 110.898 50.7101 110.739C48.7751 110.578 47.175 111.075 45.9097 112.23C44.6672 113.388 43.9568 115.036 43.7786 117.176C43.6022 119.293 44.0301 121.037 45.0621 122.406C46.1188 123.755 47.6147 124.51 49.5497 124.671ZM75.6103 107.827C78.1372 108.038 80.3037 108.723 82.1097 109.882C83.9157 111.041 85.2551 112.573 86.1278 114.48C87.0252 116.365 87.3753 118.492 87.1781 120.86C86.9828 123.204 86.2857 125.244 85.0869 126.978C83.9108 128.713 82.3249 130.003 80.3293 130.845C78.3564 131.689 76.1179 132.007 73.6138 131.798L64.6331 131.05L66.6297 107.079L75.6103 107.827ZM73.6591 126.713C75.8672 126.897 77.6362 126.437 78.966 125.333C80.2958 124.229 81.0526 122.573 81.2365 120.365C81.4205 118.157 80.949 116.387 79.8221 115.055C78.6952 113.723 77.0276 112.965 74.8195 112.782L72.0536 112.551L70.8932 126.483L73.6591 126.713ZM104.718 130.126L95.7714 129.38L93.9845 133.495L87.8722 132.986L98.5421 109.737L105.303 110.301L111.98 134.994L105.799 134.479L104.718 130.126ZM103.591 125.493L101.351 116.47L97.6834 125.001L103.591 125.493ZM137.173 112.955L127.538 128.313L126.878 136.235L121.039 135.749L121.699 127.827L114.738 111.086L121.363 111.638L125.17 122.064L130.616 112.409L137.173 112.955Z" fill="#4A4C54"/>
<rect x="48.582" y="27.0578" width="12.6687" height="28.7925" rx="6.33435" transform="rotate(4.7612 48.582 27.0578)" fill="#5277FC"/>
<rect x="104.816" y="31.7414" width="12.6687" height="28.7925" rx="6.33435" transform="rotate(4.7612 104.816 31.7414)" fill="#5277FC"/>
<rect x="128" y="130.782" width="78.7146" height="36.3519" rx="18.1759" transform="rotate(-11.2664 128 130.782)" fill="#60DF92"/>
<path d="M160.689 141.701L169.337 147.485L179.043 132.968" stroke="white" stroke-width="4.06717" stroke-linecap="round" stroke-linejoin="round"/>
</svg>
