<svg width="206" height="155" viewBox="0 0 206 155" fill="none" xmlns="http://www.w3.org/2000/svg">
<rect x="142.755" y="12.1464" width="8.80602" height="10.5672" transform="rotate(-16.6981 142.755 12.1464)" fill="#9396A2"/>
<circle cx="159.034" cy="52.623" r="37.4277" transform="rotate(-16.6981 159.034 52.623)" fill="#4A4C54"/>
<circle cx="159.11" cy="52.598" r="28.9535" transform="rotate(-16.6981 159.11 52.598)" fill="white"/>
<path d="M186.843 44.2788C188.488 49.7638 188.47 55.6135 186.791 61.0882C185.112 66.563 181.847 71.4168 177.409 75.0359C172.971 78.6551 167.56 80.877 161.859 81.4207C156.159 81.9644 150.425 80.8054 145.383 78.0904C140.341 75.3754 136.217 71.2262 133.534 66.1676C130.85 61.109 129.726 55.3682 130.305 49.6711C130.884 43.9739 133.139 38.5764 136.786 34.161C140.432 29.7456 145.306 26.5107 150.791 24.8654L159.11 52.598L186.843 44.2788Z" fill="#E3E6ED"/>
<circle cx="158.833" cy="52.8318" r="3.96271" transform="rotate(-16.6981 158.833 52.8318)" fill="#9396A2"/>
<rect x="133.725" y="6.57857" width="22.8957" height="10.5672" rx="2.82473" transform="rotate(-16.6981 133.725 6.57857)" fill="#4A4C54"/>
<rect x="9.74902" y="31.5289" width="127.788" height="112.575" rx="13.4742" transform="rotate(4.7612 9.74902 31.5289)" fill="#F2F3F6"/>
<path d="M8.63062 44.9566C9.2483 37.5407 15.7608 32.0296 23.1768 32.6473L123.668 41.0173C131.084 41.6349 136.595 48.1475 135.977 55.5634L134.486 73.467L7.13942 62.8602L8.63062 44.9566Z" fill="#33A5FF"/>
<path d="M34.372 90.8263L34.044 94.7653L28.6961 94.3199L27.343 110.565L22.4265 110.155L23.7795 93.9104L18.4316 93.4649L18.7597 89.5259L34.372 90.8263ZM44.6873 112.212C42.7897 112.054 41.0821 111.468 39.5646 110.454C38.0663 109.441 36.913 108.11 36.1046 106.46C35.3171 104.792 35.0055 102.971 35.17 100.997C35.3344 99.0225 35.9421 97.2877 36.9931 95.7926C38.0632 94.2991 39.4209 93.1769 41.0661 92.4261C42.7305 91.6768 44.5115 91.3813 46.4092 91.5393C48.3068 91.6974 50.0048 92.2827 51.5031 93.2954C53.0206 94.3096 54.1644 95.6401 54.9343 97.2869C55.7235 98.9353 56.0358 100.747 55.8714 102.721C55.707 104.695 55.0985 106.44 54.0459 107.954C52.9949 109.449 51.6468 110.572 50.0016 111.323C48.3564 112.074 46.585 112.37 44.6873 112.212ZM45.0609 107.727C46.671 107.861 48 107.431 49.0478 106.437C50.1148 105.445 50.7217 104.068 50.8686 102.304C51.017 100.522 50.6464 99.0626 49.7566 97.9269C48.8876 96.7737 47.6481 96.13 46.038 95.9959C44.4087 95.8602 43.0614 96.2787 41.996 97.2516C40.9498 98.226 40.3516 99.6141 40.2016 101.416C40.0531 103.198 40.4134 104.666 41.2823 105.82C42.1721 106.955 43.4316 107.591 45.0609 107.727ZM67.0042 93.5442C69.1319 93.7214 70.956 94.298 72.4767 95.2739C73.9974 96.2498 75.1252 97.5404 75.86 99.1457C76.6156 100.733 76.9104 102.524 76.7444 104.517C76.5799 106.492 75.993 108.209 74.9835 109.669C73.9933 111.13 72.6579 112.216 70.9776 112.925C69.3164 113.636 67.4316 113.904 65.3231 113.728L57.7613 113.098L59.4424 92.9144L67.0042 93.5442ZM65.3612 109.446C67.2205 109.601 68.71 109.214 69.8297 108.284C70.9494 107.355 71.5867 105.96 71.7415 104.101C71.8964 102.241 71.4994 100.751 70.5505 99.6299C69.6017 98.5086 68.1976 97.8705 66.3383 97.7157L64.0094 97.5217L63.0323 109.252L65.3612 109.446ZM91.513 112.319L83.98 111.692L82.4754 115.157L77.3288 114.728L86.313 95.1524L92.0059 95.6266L97.6277 116.419L92.4236 115.985L91.513 112.319ZM90.564 108.419L88.6781 100.821L85.5899 108.005L90.564 108.419ZM118.84 97.8617L110.728 110.793L110.172 117.464L105.256 117.054L105.811 110.384L99.9502 96.2883L105.528 96.7529L108.734 105.532L113.32 97.4019L118.84 97.8617Z" fill="#4A4C54"/>
<rect x="43.1865" y="21.0835" width="11.1561" height="25.3547" rx="5.57804" transform="rotate(4.7612 43.1865 21.0835)" fill="#5277FC"/>
<rect x="92.707" y="25.2089" width="11.1561" height="25.3547" rx="5.57804" transform="rotate(4.7612 92.707 25.2089)" fill="#5277FC"/>
<rect x="113.121" y="112.425" width="69.3163" height="32.0115" rx="16.0058" transform="rotate(-11.2664 113.121 112.425)" fill="#60DF92"/>
<path d="M141.908 122.036L149.523 127.13L158.07 114.346" stroke="white" stroke-width="3.58156" stroke-linecap="round" stroke-linejoin="round"/>
</svg>
