<svg width="23" height="24" viewBox="0 0 23 24" fill="none" xmlns="http://www.w3.org/2000/svg">
<path d="M6.16684 16.4811C5.88025 16.7801 5.89035 17.2549 6.1894 17.5415C6.48846 17.8281 6.96323 17.818 7.24983 17.5189L6.16684 16.4811ZM12.0415 12.5189C12.3281 12.2199 12.318 11.7451 12.0189 11.4585C11.7199 11.1719 11.2451 11.182 10.9585 11.4811L12.0415 12.5189ZM10.9585 11.4811C10.6719 11.7801 10.682 12.2549 10.9811 12.5415C11.2801 12.8281 11.7549 12.818 12.0415 12.5189L10.9585 11.4811ZM16.8332 7.51893C17.1198 7.21987 17.1097 6.74511 16.8106 6.45851C16.5115 6.17191 16.0368 6.18201 15.7502 6.48107L16.8332 7.51893ZM12.0415 11.4811C11.7549 11.182 11.2801 11.1719 10.9811 11.4585C10.682 11.7451 10.6719 12.2199 10.9585 12.5189L12.0415 11.4811ZM15.7502 17.5189C16.0368 17.818 16.5115 17.8281 16.8106 17.5415C17.1097 17.2549 17.1198 16.7801 16.8332 16.4811L15.7502 17.5189ZM10.9585 12.5189C11.2451 12.818 11.7199 12.8281 12.0189 12.5415C12.318 12.2549 12.3281 11.7801 12.0415 11.4811L10.9585 12.5189ZM7.24983 6.48107C6.96323 6.18201 6.48846 6.17191 6.1894 6.45851C5.89035 6.74511 5.88025 7.21987 6.16684 7.51893L7.24983 6.48107ZM7.24983 17.5189L12.0415 12.5189L10.9585 11.4811L6.16684 16.4811L7.24983 17.5189ZM12.0415 12.5189L16.8332 7.51893L15.7502 6.48107L10.9585 11.4811L12.0415 12.5189ZM10.9585 12.5189L15.7502 17.5189L16.8332 16.4811L12.0415 11.4811L10.9585 12.5189ZM12.0415 11.4811L7.24983 6.48107L6.16684 7.51893L10.9585 12.5189L12.0415 11.4811Z" fill="#282A31"/>
</svg>
