<svg width="155" height="187" viewBox="0 0 155 187" fill="none" xmlns="http://www.w3.org/2000/svg">
<circle cx="60.2068" cy="47.6556" r="21.656" fill="#282A31"/>
<circle cx="55.4646" cy="88.7543" r="26.3982" fill="#282A31"/>
<circle cx="94.6663" cy="47.6556" r="21.656" fill="#282A31"/>
<circle cx="99.4085" cy="88.7543" r="26.3982" fill="#282A31"/>
<ellipse cx="77.2783" cy="93.8126" rx="46.9477" ry="26.7143" fill="#282A31"/>
<path d="M78.3609 88.067C77.8246 88.7988 76.7318 88.7988 76.1956 88.067L74.3256 85.5151C73.6759 84.6285 74.309 83.3795 75.4082 83.3795L79.1482 83.3795C80.2474 83.3795 80.8806 84.6285 80.2309 85.5151L78.3609 88.067Z" fill="#FFD84D"/>
<circle cx="89.1341" cy="78.4792" r="3.16146" fill="white"/>
<circle cx="65.7391" cy="78.4792" r="3.16146" fill="white"/>
<circle cx="77.4369" cy="67.4149" r="7.90365" fill="#282A31"/>
<path d="M129.05 91.524L128.578 92.5792C121.096 109.316 109.99 124.183 96.0637 136.106V136.106" stroke="#47D27D" stroke-width="1.91805"/>
<path d="M57.4497 115.678C57.4497 122.842 50.3004 128.854 41.2031 128.854C32.1057 128.854 24.9565 122.842 24.9565 115.678C24.9565 108.513 32.1057 102.501 41.2031 102.501C50.3004 102.501 57.4497 108.513 57.4497 115.678Z" fill="#282A31" stroke="white" stroke-width="1.26458"/>
<path d="M129.568 115.678C129.568 122.842 122.419 128.854 113.322 128.854C104.224 128.854 97.0752 122.842 97.0752 115.678C97.0752 108.513 104.224 102.501 113.322 102.501C122.419 102.501 129.568 108.513 129.568 115.678Z" fill="#282A31" stroke="white" stroke-width="1.26458"/>
<mask id="path-13-inside-1_1519_34839" fill="white">
<path fill-rule="evenodd" clip-rule="evenodd" d="M149.814 87.5286C148.503 90.3394 146.007 92.2186 143.198 92.8481C144.521 95.4045 144.686 98.5251 143.376 101.336C141.132 106.147 135.413 108.229 130.601 105.985C127.79 104.675 125.911 102.178 125.282 99.3683C122.725 100.692 119.604 100.858 116.794 99.5468C111.982 97.3032 109.901 91.584 112.144 86.7725C113.455 83.9617 115.952 82.0826 118.761 81.4531C117.437 78.8966 117.272 75.7761 118.583 72.9653C120.826 68.1539 126.545 66.0723 131.357 68.3159C134.168 69.6266 136.047 72.1236 136.676 74.9328C139.233 73.6091 142.354 73.4436 145.165 74.7544C149.976 76.998 152.058 82.7172 149.814 87.5286Z"/>
</mask>
<path fill-rule="evenodd" clip-rule="evenodd" d="M149.814 87.5286C148.503 90.3394 146.007 92.2186 143.198 92.8481C144.521 95.4045 144.686 98.5251 143.376 101.336C141.132 106.147 135.413 108.229 130.601 105.985C127.79 104.675 125.911 102.178 125.282 99.3683C122.725 100.692 119.604 100.858 116.794 99.5468C111.982 97.3032 109.901 91.584 112.144 86.7725C113.455 83.9617 115.952 82.0826 118.761 81.4531C117.437 78.8966 117.272 75.7761 118.583 72.9653C120.826 68.1539 126.545 66.0723 131.357 68.3159C134.168 69.6266 136.047 72.1236 136.676 74.9328C139.233 73.6091 142.354 73.4436 145.165 74.7544C149.976 76.998 152.058 82.7172 149.814 87.5286Z" fill="#47D27D"/>
<path d="M143.198 92.8481L142.921 91.6141L141.32 91.9727L142.074 93.4294L143.198 92.8481ZM125.282 99.3683L126.516 99.0919L126.157 97.4911L124.7 98.2453L125.282 99.3683ZM118.761 81.4531L119.037 82.6871L120.638 82.3284L119.884 80.8717L118.761 81.4531ZM136.676 74.9328L135.442 75.2093L135.801 76.8101L137.258 76.0558L136.676 74.9328ZM143.474 94.082C146.649 93.3705 149.477 91.2443 150.96 88.0631L148.668 86.9942C147.53 89.4345 145.364 91.0666 142.921 91.6141L143.474 94.082ZM144.522 101.87C146.005 98.6891 145.816 95.1564 144.321 92.2667L142.074 93.4294C143.225 95.6526 143.367 98.361 142.23 100.801L144.522 101.87ZM130.067 107.131C135.511 109.67 141.983 107.315 144.522 101.87L142.23 100.801C140.281 104.98 135.314 106.788 131.136 104.839L130.067 107.131ZM124.048 99.6448C124.759 102.82 126.886 105.648 130.067 107.131L131.136 104.839C128.695 103.701 127.063 101.535 126.516 99.0919L124.048 99.6448ZM116.259 100.693C119.441 102.176 122.974 101.988 125.863 100.491L124.7 98.2453C122.477 99.3965 119.768 99.5387 117.328 98.4007L116.259 100.693ZM110.998 86.2381C108.459 91.6825 110.815 98.1541 116.259 100.693L117.328 98.4007C113.15 96.4522 111.342 91.4854 113.29 87.307L110.998 86.2381ZM118.484 80.2191C115.309 80.9306 112.481 83.0569 110.998 86.2381L113.29 87.307C114.428 84.8666 116.594 83.2345 119.037 82.6871L118.484 80.2191ZM117.437 72.4309C115.953 75.6121 116.142 79.1447 117.638 82.0344L119.884 80.8717C118.733 78.6485 118.591 75.9401 119.729 73.4998L117.437 72.4309ZM131.891 67.1698C126.447 64.631 119.975 66.9865 117.437 72.4309L119.729 73.4998C121.677 69.3213 126.644 67.5135 130.822 69.462L131.891 67.1698ZM137.91 74.6564C137.199 71.481 135.073 68.6532 131.891 67.1698L130.822 69.462C133.263 70.6 134.895 72.7662 135.442 75.2093L137.91 74.6564ZM145.699 73.6083C142.518 72.1247 138.985 72.3136 136.095 73.8098L137.258 76.0558C139.481 74.9047 142.19 74.7624 144.63 75.9005L145.699 73.6083ZM150.96 88.0631C153.499 82.6187 151.144 76.147 145.699 73.6083L144.63 75.9005C148.809 77.8489 150.616 82.8157 148.668 86.9942L150.96 88.0631Z" fill="white" mask="url(#path-13-inside-1_1519_34839)"/>
<path d="M128.916 85.989C130.078 85.8276 131.193 85.4218 132.187 84.7982C132.349 85.9607 132.754 87.0757 133.378 88.0699C132.216 88.2313 131.101 88.6372 130.106 89.2607C129.945 88.0983 129.539 86.9832 128.916 85.989Z" fill="white"/>
<circle cx="69.1365" cy="159.227" r="11.2273" fill="#47D27D"/>
<circle cx="69.1365" cy="175.773" r="11.2273" fill="#47D27D"/>
<circle cx="85.6819" cy="159.227" r="11.2273" fill="#47D27D"/>
<circle cx="85.6819" cy="175.773" r="11.2273" fill="#47D27D"/>
<path d="M74.4546 166.909C75.7924 166.043 76.9316 164.904 77.7973 163.566C78.6629 164.904 79.8021 166.043 81.1399 166.909C79.8021 167.775 78.6629 168.914 77.7973 170.252C76.9316 168.914 75.7924 167.775 74.4546 166.909Z" fill="white"/>
<circle cx="127.046" cy="159.227" r="11.2273" fill="#1C9D5F"/>
<circle cx="127.046" cy="175.773" r="11.2273" fill="#1C9D5F"/>
<circle cx="143.591" cy="159.227" r="11.2273" fill="#1C9D5F"/>
<circle cx="143.591" cy="175.773" r="11.2273" fill="#1C9D5F"/>
<path d="M132.364 166.909C133.702 166.043 134.841 164.904 135.706 163.566C136.572 164.904 137.711 166.043 139.049 166.909C137.711 167.775 136.572 168.914 135.706 170.252C134.841 168.914 133.702 167.775 132.364 166.909Z" fill="white"/>
<circle cx="11.2273" cy="159.227" r="11.2273" fill="#A9F1B0"/>
<circle cx="11.2273" cy="175.773" r="11.2273" fill="#A9F1B0"/>
<circle cx="27.7727" cy="159.227" r="11.2273" fill="#A9F1B0"/>
<circle cx="27.7727" cy="175.773" r="11.2273" fill="#A9F1B0"/>
<path d="M16.5454 166.909C17.8832 166.043 19.0224 164.904 19.8881 163.566C20.7537 164.904 21.893 166.043 23.2308 166.909C21.893 167.775 20.7537 168.914 19.8881 170.252C19.0224 168.914 17.8832 167.775 16.5454 166.909Z" fill="white"/>
<line x1="22.0305" y1="8" x2="34.9092" y2="20.8787" stroke="#4A4C54" stroke-width="3" stroke-linecap="round"/>
<line x1="47.5056" y1="2.3969" x2="48.3061" y2="14.4035" stroke="#4A4C54" stroke-width="3" stroke-linecap="round"/>
<line x1="13.6742" y1="31.8233" x2="25.7325" y2="34.235" stroke="#4A4C54" stroke-width="3" stroke-linecap="round"/>
</svg>
