<svg width="163" height="164" viewBox="0 0 163 164" fill="none" xmlns="http://www.w3.org/2000/svg">
<circle cx="59.8311" cy="26.4679" r="21.1675" transform="rotate(-4.11778 59.8311 26.4679)" fill="#282A31"/>
<circle cx="58.0924" cy="66.8687" r="25.8027" transform="rotate(-4.11778 58.0924 66.8687)" fill="#282A31"/>
<circle cx="93.4258" cy="24.0494" r="21.1675" transform="rotate(-4.11778 93.4258 24.0494)" fill="#282A31"/>
<circle cx="100.935" cy="63.7844" r="25.8027" transform="rotate(-4.11778 100.935 63.7844)" fill="#282A31"/>
<ellipse cx="79.7141" cy="70.2692" rx="45.8887" ry="26.1118" transform="rotate(-4.11778 79.7141 70.2692)" fill="#282A31"/>
<path d="M80.3667 64.5917C79.8952 65.3428 78.8299 65.4195 78.2557 64.7437L76.2535 62.3871C75.5579 61.5683 76.0875 60.3062 77.1591 60.2291L80.8053 59.9666C81.8769 59.8894 82.5819 61.0626 82.0107 61.9726L80.3667 64.5917Z" fill="#FFD84D"/>
<circle cx="90.1963" cy="54.4878" r="3.08979" transform="rotate(-4.11778 90.1963 54.4878)" fill="white"/>
<circle cx="67.3886" cy="56.1299" r="3.08979" transform="rotate(-4.11778 67.3886 56.1299)" fill="white"/>
<circle cx="78.0155" cy="44.5224" r="7.72537" transform="rotate(-4.11778 78.0155 44.5224)" fill="#282A31"/>
<path d="M105.736 102.87C105.343 103.207 105.297 103.799 105.634 104.192C105.97 104.585 106.562 104.631 106.955 104.294L105.736 102.87ZM137.732 59.6232L137.271 60.6546L138.983 61.4196L139.444 60.3883L137.732 59.6232ZM137.271 60.6546C130.014 76.887 119.243 91.3059 105.736 102.87L106.955 104.294C120.673 92.5494 131.612 77.9054 138.983 61.4196L137.271 60.6546Z" fill="#47D27D"/>
<path fill-rule="evenodd" clip-rule="evenodd" d="M158.884 56.1008C157.603 58.8483 155.162 60.6851 152.416 61.3003C153.71 63.7991 153.871 66.8492 152.59 69.5965C150.397 74.2994 144.807 76.3341 140.104 74.1411C137.357 72.86 135.52 70.4194 134.905 67.6737C132.406 68.9674 129.356 69.1292 126.608 67.848C121.905 65.655 119.871 60.0648 122.064 55.3619C123.345 52.6144 125.785 50.7776 128.531 50.1624C127.238 47.6636 127.076 44.6134 128.357 41.866C130.55 37.1631 136.14 35.1285 140.843 37.3214C143.591 38.6026 145.427 41.0432 146.043 43.789C148.542 42.4953 151.592 42.3336 154.339 43.6147C159.042 45.8077 161.077 51.3979 158.884 56.1008Z" fill="#47D27D"/>
<path d="M138.457 54.596C139.593 54.4382 140.683 54.0416 141.655 53.4322C141.812 54.5683 142.209 55.658 142.818 56.6297C141.682 56.7874 140.592 57.1841 139.621 57.7935C139.463 56.6574 139.066 55.5677 138.457 54.596Z" fill="white"/>
<ellipse cx="70.6843" cy="135.507" rx="11.2556" ry="11.2554" fill="#47D27D"/>
<ellipse cx="70.6843" cy="152.094" rx="11.2556" ry="11.2554" fill="#47D27D"/>
<ellipse cx="87.2702" cy="135.507" rx="11.2556" ry="11.2554" fill="#47D27D"/>
<ellipse cx="87.2702" cy="152.094" rx="11.2556" ry="11.2554" fill="#47D27D"/>
<path d="M76.0146 143.208C77.3557 142.34 78.4976 141.198 79.3653 139.857C80.2331 141.198 81.375 142.34 82.7161 143.208C81.375 144.076 80.2331 145.218 79.3653 146.559C78.4976 145.218 77.3557 144.076 76.0146 143.208Z" fill="white"/>
<ellipse cx="129.33" cy="135.507" rx="11.2556" ry="11.2554" fill="#1C9D5F"/>
<ellipse cx="129.33" cy="152.094" rx="11.2556" ry="11.2554" fill="#1C9D5F"/>
<ellipse cx="145.916" cy="135.507" rx="11.2556" ry="11.2554" fill="#1C9D5F"/>
<ellipse cx="145.916" cy="152.094" rx="11.2556" ry="11.2554" fill="#1C9D5F"/>
<path d="M134.661 143.208C136.002 142.34 137.144 141.198 138.012 139.857C138.88 141.198 140.022 142.34 141.363 143.208C140.022 144.076 138.88 145.218 138.012 146.559C137.144 145.218 136.002 144.076 134.661 143.208Z" fill="white"/>
<ellipse cx="12.0383" cy="135.507" rx="11.2556" ry="11.2554" fill="#A9F1B0"/>
<ellipse cx="12.0383" cy="152.094" rx="11.2556" ry="11.2554" fill="#A9F1B0"/>
<ellipse cx="28.6242" cy="135.507" rx="11.2556" ry="11.2554" fill="#A9F1B0"/>
<ellipse cx="28.6242" cy="152.094" rx="11.2556" ry="11.2554" fill="#A9F1B0"/>
<path d="M17.3687 143.208C18.7097 142.34 19.8516 141.198 20.7194 139.857C21.5871 141.198 22.729 142.34 24.07 143.208C22.729 144.076 21.5871 145.218 20.7194 146.559C19.8516 145.218 18.7097 144.076 17.3687 143.208Z" fill="white"/>
<ellipse cx="42.9796" cy="91.451" rx="16.3932" ry="13.3195" fill="url(#paint0_linear_2071_16213)"/>
<ellipse cx="119.304" cy="86.5455" rx="16.3932" ry="13.3195" transform="rotate(6.3561 119.304 86.5455)" fill="url(#paint1_linear_2071_16213)"/>
<defs>
<linearGradient id="paint0_linear_2071_16213" x1="46.3663" y1="88.6421" x2="55.7895" y2="69.6656" gradientUnits="userSpaceOnUse">
<stop offset="0.184" stop-color="#32343E"/>
<stop offset="1" stop-color="#8A8D98" stop-opacity="0.7"/>
</linearGradient>
<linearGradient id="paint1_linear_2071_16213" x1="120.666" y1="84.6604" x2="119.173" y2="61.6672" gradientUnits="userSpaceOnUse">
<stop offset="0.184" stop-color="#32343E"/>
<stop offset="1" stop-color="#8A8D98"/>
</linearGradient>
</defs>
</svg>
