<svg width="127" height="13" viewBox="0 0 127 13" fill="none" xmlns="http://www.w3.org/2000/svg">
<path d="M126.785 0.640625V13H125.254V0.640625H126.785ZM116.545 9.5957C119.785 8.05762 121.275 5.96582 121.549 3.15625H117.174V1.95312H123.093C123.093 5.63086 121.665 8.75488 117.338 10.8125L116.545 9.5957Z" fill="#3C3E48"/>
<path d="M107.863 1.03711C109.736 1.04395 111.131 2.19922 111.144 3.82617C111.131 5.45996 109.736 6.6084 107.863 6.61523C105.976 6.6084 104.582 5.45996 104.582 3.82617C104.582 2.19922 105.976 1.04395 107.863 1.03711ZM106.058 3.82617C106.058 4.7832 106.824 5.38477 107.863 5.38477C108.902 5.38477 109.661 4.7832 109.668 3.82617C109.661 2.88965 108.902 2.28809 107.863 2.29492C106.824 2.28809 106.058 2.88965 106.058 3.82617ZM106.455 8.61133V7.42188H114.658V10.6484H107.972V11.6465H115.027V12.8496H106.482V9.52734H113.14V8.61133H106.455ZM113.127 6.88867V0.640625H114.658V6.88867H113.127Z" fill="#3C3E48"/>
<path d="M96.6794 3.60742C96.6657 5.81543 97.7732 8.04395 99.6872 8.9668L98.7575 10.1836C97.4177 9.50684 96.4538 8.20117 95.9275 6.62891C95.3874 8.31055 94.3757 9.70508 92.9607 10.416L92.031 9.19922C94.0202 8.25586 95.155 5.89062 95.1618 3.60742V1.63867H96.6794V3.60742ZM100.426 13V0.640625H101.943V5.48047H103.843V6.7793H101.943V13H100.426Z" fill="#3C3E48"/>
<path d="M89.9118 0.640625V3.45703H91.6345V4.70117H89.9118V7.58594H88.3943V0.640625H89.9118ZM80.0681 6.60156C82.9323 5.87012 84.5593 4.40723 84.8259 2.62305H80.656V1.39258H86.4802C86.4734 4.60547 84.3679 6.82715 80.6696 7.81836L80.0681 6.60156ZM81.9138 12.8359V8.07812H89.9118V12.8359H81.9138ZM83.4314 11.6328H88.4079V9.32227H83.4314V11.6328Z" fill="#3C3E48"/>
<path d="M74.7497 4.14062V5.34375H66.1911V1.0918H67.695V4.14062H74.7497ZM64.7282 7.98242V6.7793H76.0212V7.98242H64.7282ZM66.0818 12.7129V9.07617H67.5993V11.4824H74.8318V12.7129H66.0818Z" fill="#3C3E48"/>
<path d="M62.322 0.640625V5.5625H64.2224V6.82031H62.322V13H60.8181V0.640625H62.322ZM52.5739 3.75781V2.54102H55.4997V0.818359H57.0173V2.54102H59.8611V3.75781H52.5739ZM53.1482 7.47656C53.1345 5.76758 54.4607 4.55762 56.2654 4.56445C58.0427 4.55762 59.362 5.76758 59.3689 7.47656C59.362 9.17871 58.0427 10.375 56.2654 10.375C54.4607 10.375 53.1345 9.17871 53.1482 7.47656ZM54.5974 7.47656C54.5905 8.48145 55.2946 9.12402 56.2654 9.11719C57.2155 9.12402 57.906 8.48145 57.9196 7.47656C57.906 6.47168 57.2155 5.80859 56.2654 5.80859C55.2946 5.80859 54.5905 6.47168 54.5974 7.47656Z" fill="#3C3E48"/>
<path d="M50.8923 0.654297V9.67773H49.3747V5.15234H47.1872V3.92188H49.3747V0.654297H50.8923ZM40.5154 7.01172C42.4841 6.3623 43.5368 4.74902 43.5368 3.10156V2.77344H40.9665V1.54297H47.6384V2.77344H45.0818V3.11523C45.0818 4.59863 46.0798 6.13672 47.9939 6.76562L47.2282 7.98242C45.8474 7.51074 44.8698 6.56738 44.3298 5.39844C43.7898 6.69727 42.7575 7.73633 41.2946 8.24219L40.5154 7.01172ZM42.7849 12.7539V8.88477H44.3025V11.5234H51.2068V12.7539H42.7849Z" fill="#3C3E48"/>
<path d="M30.74 0.832031C33.5564 0.838867 35.1902 1.58398 35.197 2.95117C35.1902 4.33203 33.5564 5.07715 30.74 5.08398C27.9304 5.07715 26.2829 4.33203 26.2829 2.95117C26.2829 1.58398 27.9304 0.838867 30.74 0.832031ZM25.1208 6.95703V5.74023H36.3864V6.95703H25.1208ZM26.447 8.91211V7.79102H34.9782V10.8125H27.9509V11.7285H35.32V12.8906H26.4607V9.73242H33.488V8.91211H26.447ZM27.8825 2.95117C27.8757 3.63477 28.8601 3.94922 30.74 3.94922C32.6472 3.94922 33.6247 3.63477 33.6247 2.95117C33.6247 2.31543 32.6472 1.95312 30.74 1.95312C28.8601 1.95312 27.8757 2.31543 27.8825 2.95117Z" fill="#3C3E48"/>
<path d="M24.3005 6.75195V7.96875H19.529V10.2383H17.9841V7.96875H13.0075V6.75195H24.3005ZM14.2107 3.44336C14.2038 1.8916 15.9812 0.914062 18.6404 0.914062C21.3132 0.914062 23.07 1.8916 23.07 3.44336C23.07 5.00195 21.3132 5.96582 18.6404 5.95898C15.9812 5.96582 14.2038 5.00195 14.2107 3.44336ZM14.3884 12.7539V9.08984H15.9196V11.5098H23.0564V12.7539H14.3884ZM15.8513 3.44336C15.8376 4.26367 16.945 4.74219 18.6404 4.74219C20.3493 4.74219 21.4499 4.26367 21.4431 3.44336C21.4499 2.5957 20.3493 2.11719 18.6404 2.11719C16.945 2.11719 15.8376 2.5957 15.8513 3.44336Z" fill="#3C3E48"/>
<path d="M11.49 0.640625V8.40625H10.0407V5.04297H8.83762V7.99609H7.41574V0.886719H8.83762V3.8125H10.0407V0.640625H11.49ZM0.853241 3.16992V1.98047H3.19113V0.75H4.69504V1.98047H7.00558V3.16992H0.853241ZM1.29074 5.80859C1.27707 4.52344 2.39816 3.66895 3.94308 3.67578C5.51535 3.66895 6.62277 4.52344 6.63644 5.80859C6.62277 7.09375 5.51535 7.94141 3.94308 7.94141C2.39816 7.94141 1.27707 7.09375 1.29074 5.80859ZM2.64426 5.80859C2.64426 6.44434 3.17062 6.84766 3.94308 6.84766C4.72238 6.84766 5.25558 6.44434 5.25558 5.80859C5.25558 5.17285 4.72238 4.76953 3.94308 4.76953C3.17062 4.76953 2.64426 5.17285 2.64426 5.80859ZM3.08176 10.7852C3.07492 9.36328 4.67453 8.56348 7.32004 8.55664C9.95871 8.56348 11.5515 9.36328 11.5583 10.7852C11.5515 12.1797 9.95871 12.9863 7.32004 12.9863C4.67453 12.9863 3.07492 12.1797 3.08176 10.7852ZM4.59933 10.7852C4.5925 11.4619 5.55637 11.8311 7.32004 11.8242C9.07687 11.8311 10.0202 11.4619 10.0271 10.7852C10.0202 10.0674 9.07687 9.70508 7.32004 9.71875C5.55637 9.70508 4.5925 10.0674 4.59933 10.7852Z" fill="#3C3E48"/>
</svg>
