<svg width="125" height="12" viewBox="0 0 125 12" fill="none" xmlns="http://www.w3.org/2000/svg">
<g clip-path="url(#clip0_1857_13991)">
<path d="M125 0V12H123.505V0H125ZM121.395 1.27434C121.395 4.84513 120.007 7.88496 115.774 9.87611L115 8.69469C118.158 7.20133 119.626 5.17035 119.887 2.44248H115.614V1.27434H121.395Z" fill="#3C3E48"/>
<path d="M106.141 0.389698C107.935 0.389698 109.27 1.53191 109.283 3.13102C109.27 4.74356 107.935 5.87234 106.141 5.87234C104.335 5.87234 103 4.74356 103 3.13102C103 1.53191 104.335 0.389698 106.141 0.389698ZM106.141 1.62598C105.147 1.62598 104.414 2.20381 104.414 3.13102C104.414 4.07167 105.147 4.66293 106.141 4.66293C107.136 4.66293 107.869 4.07167 107.869 3.13102C107.869 2.20381 107.136 1.62598 106.141 1.62598ZM112.647 0V6.1411H111.181V0H112.647ZM112.647 6.66517V9.83651H106.246V10.8175H113V12H104.819V8.7346H111.194V7.83427H104.793V6.66517H112.647Z" fill="#3C3E48"/>
<path d="M94.7222 2.88053C94.7083 5.0177 95.8333 7.19469 97.7778 8.08407L96.8333 9.26549C95.4722 8.60841 94.4931 7.34071 93.9583 5.81416C93.4097 7.4469 92.3819 8.80089 90.9444 9.49115L90 8.30973C92.0139 7.39381 93.1667 5.09735 93.1806 2.88053V0.969027H94.7222V2.88053ZM100.069 0V4.69912H102V5.96018H100.069V12H98.5278V0H100.069Z" fill="#3C3E48"/>
<path d="M89.2128 0V2.7713H91V3.99552H89.2128V6.83408H87.6383V0H89.2128ZM85.6525 0.73991C85.6383 3.90135 83.4539 6.09417 79.6241 7.06278L79 5.86547C81.9716 5.13901 83.6596 3.70628 83.9362 1.95067H79.6099V0.73991H85.6525ZM89.2128 7.31839V12H80.9149V7.31839H89.2128ZM82.4894 8.5426V10.8161H87.6525V8.5426H82.4894Z" fill="#3C3E48"/>
<path d="M72.7615 2.88588V4.02471H64.4249V0H65.8898V2.88588H72.7615ZM74 5.38353V6.52235H63V5.38353H74ZM72.8414 9.83529V11H64.3184V7.55765H65.7966V9.83529H72.8414Z" fill="#3C3E48"/>
<path d="M61.0423 0V4.77876H63V6H61.0423V12H59.493V0H61.0423ZM58.507 1.84513V3.02655H51V1.84513H54.0141V0.172566H55.5775V1.84513H58.507ZM54.8028 3.80973C56.6338 3.80973 58 4.97788 58 6.63717C58 8.29646 56.6338 9.45133 54.8028 9.45133C52.9437 9.45133 51.5775 8.29646 51.5915 6.63717C51.5775 4.97788 52.9437 3.80973 54.8028 3.80973ZM54.8028 5.0177C53.8028 5.0177 53.0845 5.65487 53.0845 6.63717C53.0845 7.61947 53.8028 8.24336 54.8028 8.23009C55.7746 8.24336 56.493 7.61947 56.507 6.63717C56.493 5.65487 55.7746 5.0177 54.8028 5.0177Z" fill="#3C3E48"/>
<path d="M49.6765 0V8.94915H48.1151V4.46102H45.8644V3.24068H48.1151V0H49.6765ZM50 10.7797V12H41.335V8.16271H42.8964V10.7797H50ZM43.6982 2.44068C43.6982 3.91864 44.7251 5.43729 46.6944 6.06102L45.9066 7.2678C44.4859 6.8 43.4802 5.87119 42.9246 4.70508C42.3619 6 41.2999 7.02373 39.8018 7.52542L39 6.30508C41.0256 5.6678 42.1087 4.05424 42.1087 2.42712V2.10169H39.4642V0.881356H46.3286V2.10169H43.6982V2.44068Z" fill="#3C3E48"/>
<path d="M29.4867 0C32.2367 0 33.8252 0.748299 33.8386 2.10884C33.8252 3.48299 32.2367 4.21769 29.4867 4.23129C26.7367 4.21769 25.1347 3.48299 25.1347 2.10884C25.1347 0.748299 26.7367 0 29.4867 0ZM29.4867 1.11565C27.6444 1.11565 26.6833 1.46939 26.6966 2.10884C26.6833 2.78912 27.6444 3.10204 29.4867 3.10204C31.3556 3.10204 32.3034 2.78912 32.3034 2.10884C32.3034 1.46939 31.3556 1.11565 29.4867 1.11565ZM35 4.88435V6.09524H24V4.88435H35ZM33.625 6.92517V9.93197H26.7633V10.8435H33.9587V12H25.3083V8.85714H32.1699V8.04082H25.2949V6.92517H33.625Z" fill="#3C3E48"/>
<path d="M23 5.42379V6.55427H18.3523V8.66282H16.8475V6.55427H12V5.42379H23ZM21.7881 9.84411V11H13.345V7.59584H14.8366V9.84411H21.7881ZM17.4867 0C20.0835 0 21.8015 0.901848 21.8015 2.34988C21.8015 3.79792 20.0835 4.68707 17.4867 4.68707C14.8898 4.68707 13.1719 3.79792 13.1719 2.34988C13.1719 0.901848 14.8898 0 17.4867 0ZM17.4867 1.11778C15.8354 1.11778 14.7567 1.56236 14.77 2.34988C14.7567 3.11201 15.8354 3.55658 17.4867 3.55658C19.1513 3.55658 20.2167 3.11201 20.2167 2.34988C20.2167 1.56236 19.1513 1.11778 17.4867 1.11778Z" fill="#3C3E48"/>
<path d="M10.9298 0V7.54817H9.44061V4.27907H8.20434V7.1495H6.7433V0.239203H8.20434V3.08306H9.44061V0H10.9298ZM6.32184 1.30233V2.45847H0V1.30233H2.4023V0.106312H3.94764V1.30233H6.32184ZM3.17497 2.95017C4.79055 2.95017 5.92848 3.77409 5.94253 5.02326C5.92848 6.27243 4.79055 7.09635 3.17497 7.09635C1.58748 7.09635 0.435504 6.27243 0.449553 5.02326C0.435504 3.77409 1.58748 2.95017 3.17497 2.95017ZM3.17497 4.01329C2.38825 4.01329 1.84036 4.39867 1.84036 5.02326C1.84036 5.64784 2.3742 6.03322 3.17497 6.03322C3.97573 6.03322 4.52363 5.64784 4.52363 5.02326C4.52363 4.39867 3.97573 4.01329 3.17497 4.01329ZM6.64496 7.69435C9.35632 7.69435 10.986 8.4784 11 9.86047C10.986 11.2159 9.35632 12 6.64496 12C3.93359 12 2.28991 11.2159 2.28991 9.86047C2.28991 8.4784 3.93359 7.69435 6.64496 7.69435ZM6.64496 8.82392C4.8327 8.81063 3.8493 9.15615 3.8493 9.86047C3.8493 10.5249 4.8327 10.8704 6.64496 10.8704C8.44317 10.8704 9.42657 10.5249 9.42657 9.86047C9.42657 9.15615 8.44317 8.81063 6.64496 8.82392Z" fill="#3C3E48"/>
</g>
<defs>
<clipPath id="clip0_1857_13991">
<rect width="125" height="12" fill="white"/>
</clipPath>
</defs>
</svg>
