<svg width="173" height="195" viewBox="0 0 173 195" fill="none" xmlns="http://www.w3.org/2000/svg">
<circle cx="64.524" cy="46.8176" r="20.7452" fill="#282A31"/>
<ellipse cx="59.9798" cy="86.1883" rx="25.2879" ry="25.2879" fill="#282A31"/>
<circle cx="97.5333" cy="46.8176" r="20.7452" fill="#282A31"/>
<ellipse cx="102.076" cy="86.1883" rx="25.2879" ry="25.2879" fill="#282A31"/>
<ellipse cx="80.876" cy="91.0326" rx="44.9732" ry="25.5908" fill="#282A31"/>
<path d="M81.971 85.4532C81.4294 86.1924 80.3256 86.1924 79.7839 85.4532L78.1306 83.197C77.4744 82.3015 78.1139 81.0399 79.2242 81.0399L82.5308 81.0399C83.6411 81.0399 84.2806 82.3015 83.6244 83.197L81.971 85.4532Z" fill="#FFD84D"/>
<circle cx="92.2331" cy="76.3418" r="3.02849" fill="white"/>
<circle cx="69.8224" cy="76.3418" r="3.02849" fill="white"/>
<circle cx="81.0244" cy="65.7452" r="7.57124" fill="#282A31"/>
<rect x="15.7822" y="112.292" width="130.28" height="82.383" rx="6.06046" fill="#E8F3FF"/>
<path fill-rule="evenodd" clip-rule="evenodd" d="M15.7793 118.447V117.68H146.059V118.445L82.6738 158.009C81.5991 158.68 80.2361 158.68 79.1614 158.009L15.7793 118.447Z" fill="#B7D9FF"/>
<path fill-rule="evenodd" clip-rule="evenodd" d="M146.049 117.909H15.8008C16.0279 114.769 18.6473 112.292 21.8453 112.292H140.004C143.202 112.292 145.822 114.769 146.049 117.909Z" fill="#B7D9FF"/>
<path d="M83.8909 126.186C83.8111 126.922 84.4624 127.527 85.1901 127.393L99.3724 124.783L85.4447 111.858L83.8909 126.186Z" fill="white"/>
<rect x="130.73" y="63.0554" width="18.9107" height="66.5677" transform="rotate(42.8607 130.73 63.0554)" fill="#FFF5D0"/>
<rect x="127.842" y="66.1624" width="5.18338" height="62.3343" transform="rotate(42.8607 127.842 66.1624)" fill="#FFC700"/>
<rect x="132.904" y="70.8665" width="5.18338" height="62.3343" transform="rotate(42.8607 132.904 70.8665)" fill="#FFC700"/>
<rect x="137.971" y="75.5585" width="5.18338" height="62.3343" transform="rotate(42.8607 137.971 75.5585)" fill="#FFC700"/>
<rect x="130.737" y="63.0389" width="19.0057" height="4.26212" transform="rotate(42.8607 130.737 63.0389)" fill="#FF5247"/>
<path d="M132.847 60.761C134.216 59.286 136.521 59.1998 137.996 60.5687L146.586 68.5398C148.061 69.9086 148.147 72.214 146.778 73.6891L144.657 75.9748L130.726 63.0467L132.847 60.761Z" fill="#FFCBC8"/>
<path fill-rule="evenodd" clip-rule="evenodd" d="M84.724 127.491C84.2205 127.578 83.7723 127.162 83.8215 126.654L84.2388 122.339L88.9959 126.753L84.724 127.491Z" fill="#3C3E48"/>
<ellipse cx="119.397" cy="109.13" rx="16.169" ry="13.228" transform="rotate(-22.2606 119.397 109.13)" fill="#282A31"/>
<ellipse cx="46.3281" cy="111.983" rx="16.169" ry="13.228" fill="url(#paint0_linear_2071_15936)"/>
<ellipse cx="119.397" cy="109.13" rx="16.169" ry="13.228" transform="rotate(-22.26 119.397 109.13)" fill="url(#paint1_linear_2071_15936)"/>
<path d="M164.442 104.218L167.472 109.274L172.528 112.304L167.472 115.335L164.442 120.391L161.411 115.335L156.355 112.304L161.411 109.274L164.442 104.218Z" fill="#FFE380"/>
<path d="M42.6649 0.777618L45.1992 5.00552L49.4271 7.53973L45.1992 10.0739L42.6649 14.3018L40.1307 10.0739L35.9028 7.53973L40.1307 5.00552L42.6649 0.777618Z" fill="#FFE380"/>
<path d="M12.0871 27.934L16.4403 35.1966L23.703 39.5498L16.4403 43.9031L12.0871 51.1657L7.73383 43.9031L0.471191 39.5498L7.73383 35.1966L12.0871 27.934Z" fill="#FFEFB5"/>
<defs>
<linearGradient id="paint0_linear_2071_15936" x1="49.6685" y1="109.193" x2="59.0658" y2="90.3984" gradientUnits="userSpaceOnUse">
<stop offset="0.184" stop-color="#32343E"/>
<stop offset="1" stop-color="#8A8D98" stop-opacity="0.7"/>
</linearGradient>
<linearGradient id="paint1_linear_2071_15936" x1="120.74" y1="107.258" x2="119.248" y2="84.424" gradientUnits="userSpaceOnUse">
<stop offset="0.184" stop-color="#32343E"/>
<stop offset="1" stop-color="#8A8D98"/>
</linearGradient>
</defs>
</svg>
