<svg width="134" height="177" viewBox="0 0 134 177" fill="none" xmlns="http://www.w3.org/2000/svg">
<rect x="-0.000488281" y="90" width="134" height="87" rx="6" fill="#E3E6ED"/>
<path fill-rule="evenodd" clip-rule="evenodd" d="M133.366 93.3144C132.381 91.3491 130.347 90 127.999 90H5.99921C3.65092 90 1.61771 91.3491 0.632324 93.3144L66.9992 139L133.366 93.3144Z" fill="#C3C6D0"/>
<circle cx="50.2961" cy="21.6558" r="21.656" fill="#282A31"/>
<circle cx="45.554" cy="62.7545" r="26.3982" fill="#282A31"/>
<circle cx="84.7556" cy="21.6558" r="21.656" fill="#282A31"/>
<circle cx="89.4978" cy="62.7545" r="26.3982" fill="#282A31"/>
<ellipse cx="67.3676" cy="67.8128" rx="46.9477" ry="26.7143" fill="#282A31"/>
<path d="M68.4502 62.0672C67.9139 62.799 66.8212 62.799 66.2849 62.0672L64.4149 59.5153C63.7652 58.6287 64.3984 57.3797 65.4976 57.3797L69.2376 57.3797C70.3368 57.3797 70.9699 58.6287 70.3202 59.5153L68.4502 62.0672Z" fill="#FFD84D"/>
<circle cx="79.2235" cy="52.4794" r="3.16146" fill="white"/>
<circle cx="55.8285" cy="52.4794" r="3.16146" fill="white"/>
<circle cx="67.5262" cy="41.4151" r="7.90365" fill="#282A31"/>
<rect x="96.2007" y="53.7803" width="11" height="43.5997" transform="rotate(25.4182 96.2007 53.7803)" fill="#FFF5D0"/>
<rect x="95.0063" y="56.2938" width="3" height="40.8167" transform="rotate(25.4182 95.0063 56.2938)" fill="#FFC700"/>
<rect x="98.6191" y="58.0106" width="3" height="40.8167" transform="rotate(25.4182 98.6191 58.0106)" fill="#FFC700"/>
<rect x="102.232" y="59.7274" width="3" height="40.8167" transform="rotate(25.4182 102.232 59.7274)" fill="#FFC700"/>
<rect x="96.2041" y="53.7732" width="11" height="2.79085" transform="rotate(25.4182 96.2041 53.7732)" fill="#FF5247"/>
<path d="M96.935 52.2357C97.4091 51.238 98.6022 50.8136 99.5999 51.2877L105.922 54.2923C106.92 54.7664 107.344 55.9595 106.87 56.9571L106.136 58.5021L96.2008 53.7807L96.935 52.2357Z" fill="white"/>
<path d="M78.8708 103.061L87.5386 97.9365L77.3701 93.1042L78.8708 103.061Z" fill="white"/>
<path fill-rule="evenodd" clip-rule="evenodd" d="M81.7601 101.353L78.8708 103.061L78.3706 99.7423L81.7601 101.353Z" fill="#3C3E48"/>
<path d="M47.54 89.6779C47.54 96.8423 40.3908 102.854 31.2934 102.854C22.1961 102.854 15.0468 96.8423 15.0468 89.6779C15.0468 82.5135 22.1961 76.5014 31.2934 76.5014C40.3908 76.5014 47.54 82.5135 47.54 89.6779Z" fill="#282A31" stroke="white" stroke-width="1.26458"/>
<path d="M119.659 89.6779C119.659 96.8423 112.509 102.854 103.412 102.854C94.3147 102.854 87.1655 96.8423 87.1655 89.6779C87.1655 82.5135 94.3147 76.5014 103.412 76.5014C112.509 76.5014 119.659 82.5135 119.659 89.6779Z" fill="#282A31" stroke="white" stroke-width="1.26458"/>
</svg>
