<svg width="95" height="95" viewBox="0 0 95 95" fill="none" xmlns="http://www.w3.org/2000/svg">
<path fill-rule="evenodd" clip-rule="evenodd" d="M26.6941 94.9997C35.1048 94.9997 42.607 91.11 47.4999 85.0312C52.3927 91.11 59.8949 94.9997 68.3056 94.9997C83.0483 94.9997 94.9997 83.0483 94.9997 68.3056C94.9997 59.8949 91.11 52.3927 85.0312 47.4999C91.11 42.607 94.9997 35.1048 94.9997 26.6941C94.9997 11.9514 83.0483 0 68.3056 0C59.8949 0 52.3927 3.88975 47.4999 9.96846C42.607 3.88975 35.1048 0 26.6941 0C11.9514 0 0 11.9514 0 26.6941C0 35.1048 3.88975 42.607 9.96846 47.4999C3.88975 52.3927 0 59.8949 0 68.3056C0 83.0483 11.9514 94.9997 26.6941 94.9997Z" fill="white"/>
<circle cx="37.514" cy="34.2094" r="10.3383" fill="#282A31"/>
<circle cx="35.2496" cy="53.8287" r="12.6021" fill="#282A31"/>
<circle cx="53.9633" cy="34.2094" r="10.3383" fill="#282A31"/>
<circle cx="56.2271" cy="53.8287" r="12.6021" fill="#282A31"/>
<ellipse cx="45.6626" cy="56.2428" rx="22.4121" ry="12.753" fill="#282A31"/>
<path d="M46.1799 53.5012C45.9239 53.8506 45.4023 53.8506 45.1462 53.5012L44.2535 52.283C43.9434 51.8598 44.2456 51.2635 44.7704 51.2635L46.5558 51.2635C47.0805 51.2635 47.3828 51.8598 47.0726 52.283L46.1799 53.5012Z" fill="#FAE100"/>
<circle cx="51.3227" cy="48.9243" r="1.50923" fill="white"/>
<circle cx="40.1547" cy="48.9243" r="1.50923" fill="white"/>
<circle cx="45.7394" cy="43.6422" r="3.77309" fill="#282A31"/>
<path d="M69.3769 55.1502L69.1517 55.6539C65.5797 63.6437 60.2781 70.7409 53.6297 76.4331V76.4331" stroke="#47D27D" stroke-width="0.91565"/>
<path fill-rule="evenodd" clip-rule="evenodd" d="M79.285 53.2377C78.6593 54.5795 77.4673 55.4766 76.1263 55.7771C76.7579 56.9975 76.8368 58.487 76.2112 59.8287C75.1401 62.1256 72.4098 63.1193 70.1129 62.0483C68.7709 61.4225 67.8738 60.2302 67.5734 58.889C66.3528 59.5212 64.8627 59.6003 63.5206 58.9745C61.2237 57.9034 60.23 55.1731 61.301 52.8762C61.9267 51.5344 63.1187 50.6373 64.4597 50.3368C63.8281 49.1165 63.7492 47.6269 64.3748 46.2853C65.4459 43.9884 68.1762 42.9946 70.4731 44.0657C71.8151 44.6915 72.7122 45.8837 73.0126 47.225C74.2332 46.5928 75.7233 46.5136 77.0654 47.1395C79.3623 48.2105 80.356 50.9408 79.285 53.2377Z" fill="#47D27D"/>
<path d="M69.312 52.5063C69.8669 52.4293 70.3992 52.2355 70.8739 51.9379C70.9509 52.4928 71.1447 53.0251 71.4423 53.4997C70.8874 53.5768 70.3551 53.7705 69.8805 54.0682C69.8034 53.5133 69.6097 52.981 69.312 52.5063Z" fill="white"/>
<ellipse cx="29.7324" cy="66.7441" rx="8" ry="7" fill="url(#paint0_linear_2083_15331)"/>
<ellipse cx="8" cy="7" rx="8" ry="7" transform="matrix(-1 0 0 1 70.6299 59.7441)" fill="url(#paint1_linear_2083_15331)"/>
<defs>
<linearGradient id="paint0_linear_2083_15331" x1="31.3852" y1="65.2679" x2="36.555" y2="55.6004" gradientUnits="userSpaceOnUse">
<stop offset="0.184" stop-color="#32343E"/>
<stop offset="1" stop-color="#8A8D98"/>
</linearGradient>
<linearGradient id="paint1_linear_2083_15331" x1="9.65273" y1="5.52377" x2="14.8226" y2="-4.14371" gradientUnits="userSpaceOnUse">
<stop offset="0.184" stop-color="#32343E"/>
<stop offset="1" stop-color="#8A8D98"/>
</linearGradient>
</defs>
</svg>
